<svg xmlns="http://www.w3.org/2000/svg" x="0px" y="0px" viewBox="0 0 32 32"><g id="Layer_1"><rect id="Canvas_4_" class="st0" width="32" height="32" style="fill: rgb(255, 19, 220); fill-opacity: 0;"></rect><path class="st9" d="M1.7,4.4v23.3c0,0.5,0.4,0.9,0.9,0.9h26.9c0.5,0,0.9-0.4,0.9-0.9V4.4c0-0.5-0.4-0.9-0.9-0.9H2.6 C2.1,3.5,1.7,3.9,1.7,4.4z M28.5,26.7H3.5V8.8h25.1V26.7z" style="fill: rgb(110, 110, 110);"></path><path class="st9" d="M15.6,19.9c0.2,0.1,0.4,0.1,0.6,0l4.6-2.3v1.7c0,1.4-2.2,3.1-4.9,3.1c-1.5-0.1-2.9-0.7-4.1-1.6v-2.7L15.6,19.9 z" style="fill: rgb(110, 110, 110);"></path><path class="st9" d="M22.7,14.9l-6.6-3.3c-0.2-0.1-0.4-0.1-0.6,0l-6.6,3.3c-0.2,0.1-0.2,0.3-0.1,0.4c0,0.1,0.1,0.1,0.1,0.1l1.1,0.6 l0,5.4c0,0.6-0.1,1.2-0.2,1.7l-0.2,0.6c-0.1,0.4,0.1,0.7,0.5,0.7h0.7c0.4,0,0.6-0.4,0.5-0.7l-0.2-0.6C11,22.7,11,22.1,11,21.5v-4.9 l4.2-1.6c0.2-0.2,0.4-0.3,0.7-0.3c0.4,0,0.7,0.2,0.7,0.5c0,0.3-0.3,0.5-0.7,0.5c0,0,0,0-0.1,0L12,17.1l3.6,1.7 c0.2,0.1,0.4,0.1,0.5,0l6.6-3.3c0.2-0.1,0.2-0.3,0.1-0.4C22.8,15,22.8,15,22.7,14.9z" style="fill: rgb(110, 110, 110);"></path></g></svg>